<?xml version="1.0" encoding="utf-8"?>
<!-- Generator: Adobe Illustrator 18.1.1, SVG Export Plug-In . SVG Version: 6.00 Build 0)  -->
<!DOCTYPE svg PUBLIC "-//W3C//DTD SVG 1.1//EN" "http://www.w3.org/Graphics/SVG/1.1/DTD/svg11.dtd">
<svg version="1.1" id="Layer_1" xmlns="http://www.w3.org/2000/svg" xmlns:xlink="http://www.w3.org/1999/xlink" x="0px" y="0px"
	 viewBox="0 0 288 288" enable-background="new 0 0 288 288" xml:space="preserve">
<g id="XMLID_3_">
	<g>
		<path fill="#4DBFAC" d="M202.4,30.3l17.9,83.6c-1.9,3.4-5.6,8.9-12.2,13.1c-8.5,5.5-17,5.7-22,5.8c-6.8,0.2-11.8-1-20.3-3.1
			c-8.1-2-8.2-2.7-18.9-5.6c-11.8-3.1-16.5-3.4-19.5-3.5c-5.1-0.1-9.5-0.1-14.3,2.5c-4.8,2.6-7.6,6.6-8.9,8.9l-1.4,0.3
			c-6.2-26.5-12.4-53-18.5-79.5l0.1,0c1.2-2,3.4-4.9,7-7.2c4.4-2.9,8.5-3.4,13.4-3.9c3.3-0.4,9.9-0.8,19.1,1c5.8,1.1,6,1.8,17.1,5.1
			c8.8,2.6,13.2,3.9,18.7,4.7c9.8,1.5,16,2.4,22.7-0.6c5.5-2.5,9-6.6,12.8-10.9C198.4,36.9,200.8,33.1,202.4,30.3z"/>
	</g>
	<g>
		<path fill="none" stroke="#212221" stroke-width="3" stroke-miterlimit="10" d="M102.6,132.3c9.8,42.2,19.6,84.3,29.5,126.5
			c-4.5,0-9,0-13.5,0L67.7,40.2l12.8-2.9c1,4.5,2.1,9,3.1,13.4c0.2,0.7,0.3,1.4,0.5,2.1C90.3,79.3,96.5,105.8,102.6,132.3z"/>
		<path fill="none" stroke="#212221" stroke-width="2" stroke-miterlimit="10" d="M104.1,132c1.3-2.3,4-6.3,8.9-8.9
			c4.8-2.6,9.2-2.6,14.3-2.5c3.1,0,7.7,0.3,19.5,3.5c10.8,2.9,10.8,3.6,18.9,5.6c8.5,2.1,13.5,3.3,20.3,3.1c5-0.1,13.5-0.3,22-5.8
			c6.6-4.2,10.3-9.7,12.2-13.1c0.1-0.2,0.2-0.4,0.4-0.6"/>
		<path fill="none" stroke="#212221" stroke-width="2" stroke-miterlimit="10" d="M84.2,52.8c1.2-2,3.4-4.9,7-7.2
			c4.4-2.9,8.5-3.4,13.4-3.9c3.3-0.4,9.9-0.8,19.1,1c5.8,1.1,6,1.8,17.1,5.1c8.8,2.6,13.2,3.9,18.7,4.7c9.8,1.5,16,2.4,22.7-0.6
			c5.5-2.5,9-6.6,12.8-10.9c3.5-4,5.8-7.8,7.4-10.6l17.9,83.6l0.4,1.7"/>
	</g>
</g>
</svg>
