<?xml version="1.0" encoding="iso-8859-1"?>
<!-- Generator: Adobe Illustrator 18.1.1, SVG Export Plug-In . SVG Version: 6.00 Build 0)  -->
<svg version="1.1" id="Capa_1" xmlns="http://www.w3.org/2000/svg" xmlns:xlink="http://www.w3.org/1999/xlink" x="0px" y="0px"
	 viewBox="0 0 16.057 16.057" style="enable-background:new 0 0 16.057 16.057;" xml:space="preserve">
<g>
	<g>
		<path style="fill:#010002;" d="M9.556,0c-3.59,0-6.5,2.91-6.5,6.5c0,1.545,0.542,2.962,1.442,4.08l-4.296,4.295
			c-0.27,0.271-0.27,0.709,0,0.979c0.27,0.271,0.709,0.271,0.979,0l4.296-4.295C6.593,12.458,8.011,13,9.557,13
			c3.59,0,6.5-2.91,6.5-6.5S13.145,0,9.556,0z M9.556,12c-3.034,0-5.5-2.467-5.5-5.5S6.524,1,9.556,1s5.5,2.467,5.5,5.5
			S12.589,12,9.556,12z"/>
	</g>
</g>
<g>
</g>
<g>
</g>
<g>
</g>
<g>
</g>
<g>
</g>
<g>
</g>
<g>
</g>
<g>
</g>
<g>
</g>
<g>
</g>
<g>
</g>
<g>
</g>
<g>
</g>
<g>
</g>
<g>
</g>
</svg>
